<svg xmlns="http://www.w3.org/2000/svg" viewBox="0 0 37 37" shape-rendering="crispEdges" width="220" height="220"><rect width="37" height="37" fill="#fff"/><path d="M2 2h1v1h-1zM3 2h1v1h-1zM4 2h1v1h-1zM5 2h1v1h-1zM6 2h1v1h-1zM7 2h1v1h-1zM8 2h1v1h-1zM10 2h1v1h-1zM12 2h1v1h-1zM13 2h1v1h-1zM14 2h1v1h-1zM16 2h1v1h-1zM20 2h1v1h-1zM24 2h1v1h-1zM28 2h1v1h-1zM29 2h1v1h-1zM30 2h1v1h-1zM31 2h1v1h-1zM32 2h1v1h-1zM33 2h1v1h-1zM34 2h1v1h-1zM2 3h1v1h-1zM8 3h1v1h-1zM10 3h1v1h-1zM11 3h1v1h-1zM12 3h1v1h-1zM13 3h1v1h-1zM14 3h1v1h-1zM18 3h1v1h-1zM19 3h1v1h-1zM21 3h1v1h-1zM23 3h1v1h-1zM24 3h1v1h-1zM26 3h1v1h-1zM28 3h1v1h-1zM34 3h1v1h-1zM2 4h1v1h-1zM4 4h1v1h-1zM5 4h1v1h-1zM6 4h1v1h-1zM8 4h1v1h-1zM10 4h1v1h-1zM14 4h1v1h-1zM19 4h1v1h-1zM20 4h1v1h-1zM21 4h1v1h-1zM22 4h1v1h-1zM23 4h1v1h-1zM28 4h1v1h-1zM30 4h1v1h-1zM31 4h1v1h-1zM32 4h1v1h-1zM34 4h1v1h-1zM2 5h1v1h-1zM4 5h1v1h-1zM5 5h1v1h-1zM6 5h1v1h-1zM8 5h1v1h-1zM12 5h1v1h-1zM13 5h1v1h-1zM14 5h1v1h-1zM22 5h1v1h-1zM23 5h1v1h-1zM25 5h1v1h-1zM26 5h1v1h-1zM28 5h1v1h-1zM30 5h1v1h-1zM31 5h1v1h-1zM32 5h1v1h-1zM34 5h1v1h-1zM2 6h1v1h-1zM4 6h1v1h-1zM5 6h1v1h-1zM6 6h1v1h-1zM8 6h1v1h-1zM10 6h1v1h-1zM11 6h1v1h-1zM12 6h1v1h-1zM14 6h1v1h-1zM15 6h1v1h-1zM16 6h1v1h-1zM17 6h1v1h-1zM19 6h1v1h-1zM20 6h1v1h-1zM22 6h1v1h-1zM23 6h1v1h-1zM24 6h1v1h-1zM28 6h1v1h-1zM30 6h1v1h-1zM31 6h1v1h-1zM32 6h1v1h-1zM34 6h1v1h-1zM2 7h1v1h-1zM8 7h1v1h-1zM11 7h1v1h-1zM12 7h1v1h-1zM13 7h1v1h-1zM19 7h1v1h-1zM22 7h1v1h-1zM25 7h1v1h-1zM28 7h1v1h-1zM34 7h1v1h-1zM2 8h1v1h-1zM3 8h1v1h-1zM4 8h1v1h-1zM5 8h1v1h-1zM6 8h1v1h-1zM7 8h1v1h-1zM8 8h1v1h-1zM10 8h1v1h-1zM12 8h1v1h-1zM14 8h1v1h-1zM16 8h1v1h-1zM18 8h1v1h-1zM20 8h1v1h-1zM22 8h1v1h-1zM24 8h1v1h-1zM26 8h1v1h-1zM28 8h1v1h-1zM29 8h1v1h-1zM30 8h1v1h-1zM31 8h1v1h-1zM32 8h1v1h-1zM33 8h1v1h-1zM34 8h1v1h-1zM11 9h1v1h-1zM14 9h1v1h-1zM15 9h1v1h-1zM24 9h1v1h-1zM25 9h1v1h-1zM26 9h1v1h-1zM2 10h1v1h-1zM5 10h1v1h-1zM6 10h1v1h-1zM7 10h1v1h-1zM8 10h1v1h-1zM9 10h1v1h-1zM10 10h1v1h-1zM12 10h1v1h-1zM13 10h1v1h-1zM14 10h1v1h-1zM16 10h1v1h-1zM17 10h1v1h-1zM18 10h1v1h-1zM19 10h1v1h-1zM26 10h1v1h-1zM27 10h1v1h-1zM30 10h1v1h-1zM32 10h1v1h-1zM33 10h1v1h-1zM34 10h1v1h-1zM4 11h1v1h-1zM5 11h1v1h-1zM6 11h1v1h-1zM7 11h1v1h-1zM12 11h1v1h-1zM13 11h1v1h-1zM14 11h1v1h-1zM17 11h1v1h-1zM20 11h1v1h-1zM21 11h1v1h-1zM25 11h1v1h-1zM30 11h1v1h-1zM31 11h1v1h-1zM32 11h1v1h-1zM4 12h1v1h-1zM8 12h1v1h-1zM9 12h1v1h-1zM11 12h1v1h-1zM16 12h1v1h-1zM17 12h1v1h-1zM19 12h1v1h-1zM20 12h1v1h-1zM25 12h1v1h-1zM26 12h1v1h-1zM28 12h1v1h-1zM30 12h1v1h-1zM31 12h1v1h-1zM32 12h1v1h-1zM33 12h1v1h-1zM34 12h1v1h-1zM2 13h1v1h-1zM3 13h1v1h-1zM4 13h1v1h-1zM7 13h1v1h-1zM9 13h1v1h-1zM10 13h1v1h-1zM11 13h1v1h-1zM13 13h1v1h-1zM14 13h1v1h-1zM16 13h1v1h-1zM17 13h1v1h-1zM19 13h1v1h-1zM21 13h1v1h-1zM22 13h1v1h-1zM24 13h1v1h-1zM28 13h1v1h-1zM29 13h1v1h-1zM32 13h1v1h-1zM33 13h1v1h-1zM5 14h1v1h-1zM7 14h1v1h-1zM8 14h1v1h-1zM9 14h1v1h-1zM12 14h1v1h-1zM15 14h1v1h-1zM16 14h1v1h-1zM18 14h1v1h-1zM19 14h1v1h-1zM20 14h1v1h-1zM21 14h1v1h-1zM22 14h1v1h-1zM26 14h1v1h-1zM28 14h1v1h-1zM30 14h1v1h-1zM34 14h1v1h-1zM2 15h1v1h-1zM5 15h1v1h-1zM7 15h1v1h-1zM9 15h1v1h-1zM11 15h1v1h-1zM13 15h1v1h-1zM15 15h1v1h-1zM18 15h1v1h-1zM19 15h1v1h-1zM22 15h1v1h-1zM23 15h1v1h-1zM25 15h1v1h-1zM27 15h1v1h-1zM29 15h1v1h-1zM32 15h1v1h-1zM2 16h1v1h-1zM3 16h1v1h-1zM4 16h1v1h-1zM5 16h1v1h-1zM6 16h1v1h-1zM7 16h1v1h-1zM8 16h1v1h-1zM18 16h1v1h-1zM21 16h1v1h-1zM23 16h1v1h-1zM24 16h1v1h-1zM28 16h1v1h-1zM2 17h1v1h-1zM3 17h1v1h-1zM13 17h1v1h-1zM14 17h1v1h-1zM16 17h1v1h-1zM17 17h1v1h-1zM20 17h1v1h-1zM21 17h1v1h-1zM22 17h1v1h-1zM25 17h1v1h-1zM26 17h1v1h-1zM27 17h1v1h-1zM29 17h1v1h-1zM32 17h1v1h-1zM34 17h1v1h-1zM2 18h1v1h-1zM3 18h1v1h-1zM5 18h1v1h-1zM6 18h1v1h-1zM7 18h1v1h-1zM8 18h1v1h-1zM12 18h1v1h-1zM13 18h1v1h-1zM14 18h1v1h-1zM15 18h1v1h-1zM16 18h1v1h-1zM24 18h1v1h-1zM25 18h1v1h-1zM26 18h1v1h-1zM27 18h1v1h-1zM28 18h1v1h-1zM29 18h1v1h-1zM30 18h1v1h-1zM31 18h1v1h-1zM2 19h1v1h-1zM9 19h1v1h-1zM10 19h1v1h-1zM12 19h1v1h-1zM14 19h1v1h-1zM15 19h1v1h-1zM16 19h1v1h-1zM17 19h1v1h-1zM18 19h1v1h-1zM20 19h1v1h-1zM21 19h1v1h-1zM22 19h1v1h-1zM27 19h1v1h-1zM28 19h1v1h-1zM30 19h1v1h-1zM32 19h1v1h-1zM33 19h1v1h-1zM34 19h1v1h-1zM3 20h1v1h-1zM6 20h1v1h-1zM8 20h1v1h-1zM9 20h1v1h-1zM11 20h1v1h-1zM12 20h1v1h-1zM17 20h1v1h-1zM21 20h1v1h-1zM23 20h1v1h-1zM25 20h1v1h-1zM27 20h1v1h-1zM28 20h1v1h-1zM29 20h1v1h-1zM31 20h1v1h-1zM32 20h1v1h-1zM34 20h1v1h-1zM2 21h1v1h-1zM5 21h1v1h-1zM10 21h1v1h-1zM12 21h1v1h-1zM14 21h1v1h-1zM16 21h1v1h-1zM17 21h1v1h-1zM18 21h1v1h-1zM19 21h1v1h-1zM20 21h1v1h-1zM22 21h1v1h-1zM24 21h1v1h-1zM26 21h1v1h-1zM28 21h1v1h-1zM30 21h1v1h-1zM31 21h1v1h-1zM32 21h1v1h-1zM33 21h1v1h-1zM34 21h1v1h-1zM2 22h1v1h-1zM3 22h1v1h-1zM4 22h1v1h-1zM6 22h1v1h-1zM7 22h1v1h-1zM8 22h1v1h-1zM13 22h1v1h-1zM15 22h1v1h-1zM16 22h1v1h-1zM17 22h1v1h-1zM21 22h1v1h-1zM24 22h1v1h-1zM29 22h1v1h-1zM31 22h1v1h-1zM33 22h1v1h-1zM34 22h1v1h-1zM2 23h1v1h-1zM3 23h1v1h-1zM4 23h1v1h-1zM5 23h1v1h-1zM9 23h1v1h-1zM10 23h1v1h-1zM15 23h1v1h-1zM16 23h1v1h-1zM18 23h1v1h-1zM20 23h1v1h-1zM21 23h1v1h-1zM24 23h1v1h-1zM25 23h1v1h-1zM30 23h1v1h-1zM31 23h1v1h-1zM2 24h1v1h-1zM4 24h1v1h-1zM8 24h1v1h-1zM9 24h1v1h-1zM10 24h1v1h-1zM13 24h1v1h-1zM17 24h1v1h-1zM18 24h1v1h-1zM19 24h1v1h-1zM24 24h1v1h-1zM25 24h1v1h-1zM26 24h1v1h-1zM28 24h1v1h-1zM30 24h1v1h-1zM31 24h1v1h-1zM33 24h1v1h-1zM34 24h1v1h-1zM2 25h1v1h-1zM6 25h1v1h-1zM9 25h1v1h-1zM10 25h1v1h-1zM14 25h1v1h-1zM15 25h1v1h-1zM18 25h1v1h-1zM19 25h1v1h-1zM27 25h1v1h-1zM28 25h1v1h-1zM29 25h1v1h-1zM32 25h1v1h-1zM2 26h1v1h-1zM3 26h1v1h-1zM5 26h1v1h-1zM6 26h1v1h-1zM7 26h1v1h-1zM8 26h1v1h-1zM10 26h1v1h-1zM12 26h1v1h-1zM13 26h1v1h-1zM15 26h1v1h-1zM16 26h1v1h-1zM17 26h1v1h-1zM18 26h1v1h-1zM21 26h1v1h-1zM26 26h1v1h-1zM27 26h1v1h-1zM28 26h1v1h-1zM29 26h1v1h-1zM30 26h1v1h-1zM31 26h1v1h-1zM34 26h1v1h-1zM10 27h1v1h-1zM11 27h1v1h-1zM13 27h1v1h-1zM17 27h1v1h-1zM18 27h1v1h-1zM20 27h1v1h-1zM23 27h1v1h-1zM26 27h1v1h-1zM30 27h1v1h-1zM32 27h1v1h-1zM33 27h1v1h-1zM2 28h1v1h-1zM3 28h1v1h-1zM4 28h1v1h-1zM5 28h1v1h-1zM6 28h1v1h-1zM7 28h1v1h-1zM8 28h1v1h-1zM10 28h1v1h-1zM13 28h1v1h-1zM14 28h1v1h-1zM16 28h1v1h-1zM17 28h1v1h-1zM18 28h1v1h-1zM20 28h1v1h-1zM21 28h1v1h-1zM22 28h1v1h-1zM23 28h1v1h-1zM25 28h1v1h-1zM26 28h1v1h-1zM28 28h1v1h-1zM30 28h1v1h-1zM32 28h1v1h-1zM2 29h1v1h-1zM8 29h1v1h-1zM10 29h1v1h-1zM11 29h1v1h-1zM14 29h1v1h-1zM16 29h1v1h-1zM17 29h1v1h-1zM21 29h1v1h-1zM25 29h1v1h-1zM26 29h1v1h-1zM30 29h1v1h-1zM31 29h1v1h-1zM32 29h1v1h-1zM34 29h1v1h-1zM2 30h1v1h-1zM4 30h1v1h-1zM5 30h1v1h-1zM6 30h1v1h-1zM8 30h1v1h-1zM10 30h1v1h-1zM11 30h1v1h-1zM13 30h1v1h-1zM16 30h1v1h-1zM19 30h1v1h-1zM20 30h1v1h-1zM21 30h1v1h-1zM22 30h1v1h-1zM24 30h1v1h-1zM25 30h1v1h-1zM26 30h1v1h-1zM27 30h1v1h-1zM28 30h1v1h-1zM29 30h1v1h-1zM30 30h1v1h-1zM33 30h1v1h-1zM34 30h1v1h-1zM2 31h1v1h-1zM4 31h1v1h-1zM5 31h1v1h-1zM6 31h1v1h-1zM8 31h1v1h-1zM10 31h1v1h-1zM12 31h1v1h-1zM13 31h1v1h-1zM15 31h1v1h-1zM16 31h1v1h-1zM21 31h1v1h-1zM22 31h1v1h-1zM23 31h1v1h-1zM24 31h1v1h-1zM25 31h1v1h-1zM26 31h1v1h-1zM27 31h1v1h-1zM29 31h1v1h-1zM31 31h1v1h-1zM33 31h1v1h-1zM34 31h1v1h-1zM2 32h1v1h-1zM4 32h1v1h-1zM5 32h1v1h-1zM6 32h1v1h-1zM8 32h1v1h-1zM12 32h1v1h-1zM14 32h1v1h-1zM18 32h1v1h-1zM21 32h1v1h-1zM22 32h1v1h-1zM26 32h1v1h-1zM29 32h1v1h-1zM30 32h1v1h-1zM32 32h1v1h-1zM33 32h1v1h-1zM34 32h1v1h-1zM2 33h1v1h-1zM8 33h1v1h-1zM11 33h1v1h-1zM12 33h1v1h-1zM13 33h1v1h-1zM14 33h1v1h-1zM15 33h1v1h-1zM16 33h1v1h-1zM17 33h1v1h-1zM18 33h1v1h-1zM21 33h1v1h-1zM24 33h1v1h-1zM27 33h1v1h-1zM29 33h1v1h-1zM30 33h1v1h-1zM31 33h1v1h-1zM32 33h1v1h-1zM33 33h1v1h-1zM34 33h1v1h-1zM2 34h1v1h-1zM3 34h1v1h-1zM4 34h1v1h-1zM5 34h1v1h-1zM6 34h1v1h-1zM7 34h1v1h-1zM8 34h1v1h-1zM10 34h1v1h-1zM11 34h1v1h-1zM18 34h1v1h-1zM19 34h1v1h-1zM25 34h1v1h-1zM26 34h1v1h-1zM29 34h1v1h-1zM30 34h1v1h-1z" fill="#0f1620"/></svg>